Force Plate Walk 4
version=1
nRows=48
nColumns=19
inDegrees=yes
endheader
time	ground_force1_vx	ground_force1_vy	ground_force1_vz	ground_force1_px	ground_force1_py	ground_force1_pz	ground_torque1_x	ground_torque1_y	ground_torque1_z	ground_force2_vx	ground_force2_vy	ground_force2_vz	ground_force2_px	ground_force2_py	ground_force2_pz	ground_torque2_x	ground_torque2_y	ground_torque2_z
5.277000	-124.594116	448.222229	9.074729	0.669465	0.000000	-0.183974	0.000007	1.194522	0.000025	31.659168	332.646667	0.878180	0.117405	0.000000	-0.051273	0.000004	-3.374474	0.000002	
5.278000	-123.347137	441.104553	8.967106	0.669395	0.000000	-0.183780	0.000004	1.240773	-0.000004	34.477001	339.508728	1.150103	0.116579	0.000000	-0.052293	0.000002	-3.482386	0.000001	
5.279000	-123.041237	434.087494	8.560850	0.668817	0.000000	-0.183738	0.000008	1.257407	0.000010	37.466999	345.172546	2.550878	0.114458	0.000000	-0.052627	0.000002	-3.289717	0.000000	
5.280000	-123.095482	427.994324	8.180435	0.668328	0.000000	-0.184000	0.000009	1.276869	0.000023	41.777760	351.874542	3.499360	0.112971	0.000000	-0.053818	0.000003	-2.729170	0.000003	
5.281000	-121.852654	420.903717	7.581019	0.668348	0.000000	-0.183910	0.000002	1.232222	0.000014	46.736389	359.050568	3.974454	0.112026	0.000000	-0.055663	-0.000001	-2.281477	-0.000001	
5.282000	-120.200233	414.263031	6.762511	0.668363	0.000000	-0.183758	0.000005	1.211026	-0.000007	50.712227	364.321655	5.797072	0.109660	0.000000	-0.056556	0.000002	-1.814324	0.000002	
5.283000	-118.961998	407.730988	6.227986	0.668018	0.000000	-0.183721	0.000001	1.256886	0.000025	54.622013	368.564514	8.285328	0.107080	0.000000	-0.056984	0.000000	-1.081063	-0.000003	
5.284000	-117.899002	398.371796	5.900676	0.667184	0.000000	-0.183621	0.000007	1.262141	0.000014	59.121574	373.891449	9.451438	0.105400	0.000000	-0.057856	0.000003	-0.648928	-0.000004	
5.285000	-116.361816	390.519531	5.352553	0.667045	0.000000	-0.183985	0.000007	1.237819	0.000003	62.662601	381.295898	10.516458	0.103331	0.000000	-0.058756	0.000002	-0.290586	0.000002	
5.286000	-115.051483	383.745239	4.615126	0.667034	0.000000	-0.183958	0.000007	1.168785	0.000011	65.438477	387.658051	11.613666	0.100134	0.000000	-0.057734	0.000001	0.569005	0.000002	
5.287000	-114.289253	374.068420	4.439002	0.666236	0.000000	-0.183581	0.000006	1.125824	0.000020	68.478622	395.630310	10.610636	0.098432	0.000000	-0.057378	-0.000001	0.908063	-0.000004	
5.288000	-113.571571	364.192200	4.332334	0.664994	0.000000	-0.183947	0.000007	1.207668	0.000012	71.439919	404.763824	8.852253	0.098174	0.000000	-0.058024	-0.000004	0.741412	0.000002	
5.289000	-112.550034	355.863708	3.801307	0.664456	0.000000	-0.184149	0.000003	1.138834	0.000014	73.169792	413.527771	8.274806	0.097825	0.000000	-0.057865	-0.000000	1.089301	0.000002	
5.290000	-111.442642	347.599731	3.461151	0.664200	0.000000	-0.183910	0.000001	1.074058	0.000021	73.910553	422.536987	6.105573	0.097316	0.000000	-0.057224	-0.000005	0.983287	-0.000001	
5.291000	-110.152702	340.846191	3.048151	0.664273	0.000000	-0.184348	0.000000	1.151946	0.000009	74.306602	432.193726	1.945644	0.097596	0.000000	-0.056728	-0.000006	0.185867	-0.000001	
5.292000	-108.371750	331.864899	2.485808	0.663566	0.000000	-0.184226	0.000004	1.107870	0.000010	74.613106	441.667114	-0.700544	0.098240	0.000000	-0.055955	-0.000002	0.014710	0.000007	
5.293000	-106.754776	322.086060	1.753394	0.662264	0.000000	-0.183616	0.000005	0.957560	-0.000002	74.601212	449.115784	-2.891083	0.098353	0.000000	-0.054707	-0.000002	-0.255468	0.000003	
5.294000	-105.306694	314.863159	1.341738	0.661961	0.000000	-0.183375	0.000005	0.869723	0.000018	74.198677	455.465759	-6.342522	0.097891	0.000000	-0.052979	0.000005	-1.085377	0.000004	
5.295000	-103.430519	307.829559	0.504641	0.661824	0.000000	-0.183344	-0.000001	0.790435	0.000003	74.405128	462.624115	-9.641296	0.096909	0.000000	-0.051522	0.000005	-1.514654	0.000008	
5.296000	-101.540985	301.543121	-0.303308	0.661494	0.000000	-0.183607	0.000002	0.722768	0.000018	75.503441	470.236176	-10.995266	0.095586	0.000000	-0.049870	0.000000	-1.584759	0.000001	
5.297000	-99.135124	292.540497	-0.558878	0.660228	0.000000	-0.183559	0.000006	0.730078	0.000016	76.994888	479.500580	-11.570630	0.095016	0.000000	-0.049471	0.000004	-2.046796	0.000001	
5.298000	-97.040764	283.969452	-1.078382	0.659253	0.000000	-0.184329	0.000006	0.781022	0.000007	78.598190	487.946075	-13.709172	0.094165	0.000000	-0.049677	0.000001	-2.476725	0.000005	
5.299000	-95.208199	276.691406	-1.572334	0.658823	0.000000	-0.184694	0.000001	0.818059	0.000007	80.782410	496.067596	-15.531116	0.093158	0.000000	-0.049556	-0.000002	-2.359394	-0.000001	
5.300000	-92.807060	268.668945	-1.874078	0.658459	0.000000	-0.184708	0.000001	0.804974	0.000011	83.314728	503.531921	-15.103661	0.092335	0.000000	-0.049393	0.000004	-2.371792	0.000001	
5.301000	-90.306572	260.001801	-2.176589	0.657764	0.000000	-0.184442	0.000003	0.725217	0.000019	85.559029	510.169403	-14.806993	0.091066	0.000000	-0.049270	0.000002	-2.517832	0.000008	
5.302000	-88.087761	252.926285	-2.325588	0.657298	0.000000	-0.184521	0.000005	0.702414	0.000020	87.345795	518.655762	-14.959119	0.090012	0.000000	-0.049944	-0.000001	-2.360038	0.000007	
5.303000	-85.726097	245.966599	-2.811294	0.657092	0.000000	-0.184442	0.000004	0.638326	0.000012	90.462044	527.478394	-13.659456	0.089547	0.000000	-0.051173	0.000001	-2.109406	0.000000	
5.304000	-83.328644	237.747665	-3.348855	0.656217	0.000000	-0.184028	0.000004	0.557463	0.000002	93.342369	533.876343	-11.873976	0.088717	0.000000	-0.051661	-0.000002	-1.920143	0.000001	
5.305000	-81.189926	229.521896	-3.499147	0.654940	0.000000	-0.184039	-0.000001	0.508852	0.000006	95.376221	540.244385	-10.002712	0.087530	0.000000	-0.052604	0.000001	-1.386156	-0.000004	
5.306000	-79.032692	222.302109	-3.932827	0.654380	0.000000	-0.184203	0.000003	0.412370	0.000004	99.185036	546.347839	-8.522581	0.086399	0.000000	-0.053796	0.000007	-0.971955	-0.000004	
5.307000	-76.739235	215.676376	-4.075026	0.654250	0.000000	-0.184502	0.000001	0.395358	0.000012	103.307648	551.763428	-6.767924	0.084804	0.000000	-0.054677	-0.000004	-0.682768	-0.000000	
5.308000	-74.454514	208.293182	-4.200817	0.654229	0.000000	-0.184901	0.000002	0.398959	0.000007	105.684731	557.464111	-4.140978	0.083194	0.000000	-0.055351	0.000009	-0.002820	0.000000	
5.309000	-72.366211	200.434570	-4.275607	0.653012	0.000000	-0.184663	0.000002	0.378376	0.000007	108.436546	564.357544	-2.159245	0.081667	0.000000	-0.056303	0.000002	0.485925	-0.000001	
5.310000	-70.593002	192.167709	-4.134091	0.651036	0.000000	-0.184088	0.000000	0.402078	-0.000003	112.564651	571.011780	-1.005883	0.080069	0.000000	-0.056952	0.000002	0.710971	0.000002	
5.311000	-68.423424	183.990784	-4.278921	0.649430	0.000000	-0.183927	0.000001	0.377795	0.000014	115.656013	575.506409	-0.474825	0.078952	0.000000	-0.056874	0.000006	1.187944	-0.000001	
5.312000	-66.225365	177.948959	-4.426439	0.649651	0.000000	-0.184763	0.000005	0.320234	0.000009	116.858002	578.845093	-0.722250	0.077803	0.000000	-0.056794	0.000007	1.375136	-0.000003	
5.313000	-64.287277	172.714523	-4.548305	0.650580	0.000000	-0.184932	0.000002	0.288965	0.000011	118.037636	581.665344	-0.921978	0.076932	0.000000	-0.056384	0.000001	1.295006	0.000002	
5.314000	-62.063286	166.797958	-4.706073	0.649969	0.000000	-0.184961	-0.000001	0.305710	0.000013	118.490005	584.336121	-2.767943	0.076275	0.000000	-0.055851	0.000010	0.985481	0.000003	
5.315000	-59.445744	160.128296	-5.134357	0.649463	0.000000	-0.185527	0.000001	0.238931	0.000011	117.966042	587.938049	-5.329951	0.076210	0.000000	-0.055385	0.000001	0.558007	0.000000	
5.316000	-56.473282	152.978638	-5.450971	0.647910	0.000000	-0.185863	0.000002	0.157058	0.000009	117.628326	592.397217	-7.052755	0.076927	0.000000	-0.055108	0.000004	-0.072311	0.000002	
5.317000	-53.733650	146.442459	-5.279744	0.647349	0.000000	-0.184703	0.000002	0.106245	0.000006	116.987694	595.607300	-9.164133	0.077214	0.000000	-0.054376	0.000004	-0.555303	-0.000003	
5.318000	-50.859211	140.378799	-5.407319	0.647143	0.000000	-0.184195	0.000000	0.130585	0.000002	116.036736	597.683350	-12.309352	0.077087	0.000000	-0.053522	0.000001	-1.067326	0.000008	
5.319000	-47.940742	134.305649	-5.742661	0.646068	0.000000	-0.184235	0.000001	0.068669	0.000006	115.134941	600.391418	-14.643468	0.077111	0.000000	-0.052696	0.000005	-1.762127	0.000006	
5.320000	-45.552326	128.836243	-5.549643	0.645813	0.000000	-0.185035	0.000003	0.118651	-0.000003	114.587776	603.191040	-15.914098	0.077236	0.000000	-0.051980	0.000004	-2.170859	-0.000002	
5.321000	-43.598911	124.036064	-5.286257	0.645188	0.000000	-0.184963	0.000002	0.146104	0.000002	114.102364	604.856995	-17.551603	0.076941	0.000000	-0.051532	-0.000000	-2.486503	0.000003	
5.322000	-41.754883	118.393265	-5.322037	0.644530	0.000000	-0.185715	0.000001	0.131452	0.000003	114.141754	607.283691	-19.354174	0.076586	0.000000	-0.051425	0.000006	-2.870098	-0.000005	
5.323000	-39.917145	111.970291	-5.133804	0.643516	0.000000	-0.186203	0.000002	0.044904	-0.000001	114.781685	609.035583	-20.061790	0.075933	0.000000	-0.051310	0.000006	-2.911886	0.000003	
5.324000	-37.968990	106.751030	-5.059028	0.643403	0.000000	-0.185895	0.000001	-0.005736	0.000004	115.371941	610.983643	-19.695765	0.075254	0.000000	-0.051148	0.000000	-2.543829	0.000002	
